# xmcd
#
# Track frame offsets:
#	150
#	16388
#	35688
#	56934
#	75238
#	93302
#	108394
#	123725
#	139412
#	152926
#	169572
#	186078
#	201665
#	216971
#	236763
#	251590
#
# Disc length: 3583
#
# Revision: 1
# Processed by: cddbd v1.5.1PL0 Copyright (c) Steve Scherf et al.
# Submitted via: EasyCDDAExtractor 8.0.1.1
# Normalized: r0:DSETVAR1
#
DISCID=eb0dfd10
DTITLE=Various Artist - CDX 365
DYEAR=2005
DGENRE=Country
TTITLE0=Jon Randall - Baby Won't You Come Home
TTITLE1=Bobby Pinson - Don't Ask Me How I Know
TTITLE2=Charlie Robison - El Cerrito Place
TTITLE3=Van Zant - Help Somebody
TTITLE4=Reba McEntire - My Sister
TTITLE5=Dena Carter - One Day At A Time
TTITLE6=Cledus T. Judd - Paycheck Woman
TTITLE7=Tracy Byrd - Tiny Town
TTITLE8=Lauren Lucas - What You Ain't Gonna Get
TTITLE9=Kevin Sharp - Your Love Reaches Me
TTITLE10=Brittany Wells - Somebody's Somebody
TTITLE11=Forty 5 South - Country So We Can
TTITLE12=Glenn Cummings - Good Old Days
TTITLE13=Barry Lee White - As Long As I'm Here
TTITLE14=Rustie Blue - The Devil May Care
TTITLE15=Derryl Perry - Four Nights In Albuquerque
EXTD=
EXTT0=
EXTT1=
EXTT2=
EXTT3=
EXTT4=
EXTT5=
EXTT6=
EXTT7=
EXTT8=
EXTT9=
EXTT10=
EXTT11=
EXTT12=
EXTT13=
EXTT14=
EXTT15=
PLAYORDER=
